# xmcd
#
# Track frame offsets: 
#        150
#        20347
#        47915
#        79285
#        111667
#        155000
#        173792
#        238040
#        258870
#        318565
#        343110
#
# Disc length: 4643 seconds
#
# Revision: 1
# Processed by: cddbd v1.5.2PL0 Copyright (c) Steve Scherf et al.
# Submitted via: ExactAudioCopyFreeDBPlugin 1.0
#
DISCID=9a12210b
DTITLE=村松健 - 雪催-ゆきもよい-
DYEAR=1996
DGENRE=New Age
TTITLE0=ゆきもよい
TTITLE1=奇蹟のピアノ
TTITLE2=雪あかり、星あかり
TTITLE3=DAN-RO
TTITLE4=迷子の天使
TTITLE5=パウダーブルーの海
TTITLE6=Green Sleeves
TTITLE7=DAN-RO
TTITLE8=A Quiet Place
TTITLE9=春の野を行く
TTITLE10=No Title
EXTD=YEAR: 1996
EXTT0=
EXTT1=
EXTT2=
EXTT3=
EXTT4=
EXTT5=
EXTT6=
EXTT7=
EXTT8=
EXTT9=
EXTT10=
PLAYORDER=
